<?xml version="1.0" standalone="no"?>
<!DOCTYPE svg PUBLIC "-//W3C//DTD SVG 20010904//EN"
 "http://www.w3.org/TR/2001/REC-SVG-20010904/DTD/svg10.dtd">
<svg version="1.0" xmlns="http://www.w3.org/2000/svg"
 width="722.000000pt" height="722.000000pt" viewBox="0 0 722.000000 722.000000"
 preserveAspectRatio="xMidYMid meet">
<metadata>
Created by potrace 1.11, written by Peter Selinger 2001-2013
</metadata>
<g transform="translate(0.000000,722.000000) scale(0.100000,-0.100000)"
fill="#000000" stroke="none">
<path d="M3540 7204 c-211 -18 -375 -48 -550 -101 -754 -228 -1337 -801 -1445
-1420 -41 -237 13 -533 127 -695 l19 -28 -44 6 c-233 32 -537 -335 -537 -648
0 -154 43 -268 142 -374 115 -122 275 -179 492 -172 l118 3 79 -199 c85 -213
85 -216 23 -216 -18 0 -42 -9 -55 -19 -22 -18 -24 -26 -24 -118 1 -54 7 -115
14 -135 15 -46 54 -78 92 -78 25 0 30 -5 39 -42 57 -220 162 -378 307 -463 30
-18 43 -45 158 -335 68 -173 268 -678 443 -1123 176 -444 332 -826 348 -849
84 -120 196 -188 325 -196 166 -10 314 74 406 230 17 29 226 548 463 1153 417
1062 434 1102 467 1124 39 25 53 18 53 -25 0 -12 17 -55 37 -95 32 -65 62
-100 252 -291 261 -263 278 -273 436 -273 90 0 106 3 158 28 75 37 149 113
190 196 29 59 32 74 32 156 0 72 -5 100 -23 139 -28 62 -183 222 -223 231 -37
8 -93 -18 -108 -51 -25 -55 -15 -79 64 -165 85 -93 103 -133 86 -194 -25 -93
-116 -154 -208 -140 -46 7 -56 15 -242 198 -106 106 -207 212 -222 236 -40 62
-39 109 3 167 44 61 43 108 -4 149 l-34 30 21 57 c11 31 23 59 26 63 9 9 116
-111 139 -155 29 -57 26 -115 -7 -159 -40 -52 -38 -104 5 -142 66 -59 143 -25
199 89 23 48 28 70 28 133 0 70 -4 84 -42 160 -28 55 -66 110 -112 160 l-70
76 11 71 c20 139 -9 202 -94 202 -22 0 -38 4 -36 9 2 5 52 136 113 290 l110
281 75 0 c149 0 273 53 380 161 202 203 226 495 58 707 -77 96 -235 196 -352
223 -30 6 -54 15 -52 18 9 14 37 207 46 319 37 425 -115 817 -450 1166 -350
364 -761 583 -1220 650 -108 16 -349 27 -430 20z m347 -305 c15 -5 45 -27 66
-47 47 -46 49 -84 9 -129 -107 -116 -302 -83 -302 52 0 50 34 99 85 121 37 16
104 18 142 3z m449 -189 c5 -5 52 -13 105 -18 90 -8 100 -12 165 -54 63 -41
228 -184 247 -214 4 -7 23 -18 42 -24 44 -15 75 -54 75 -95 0 -19 8 -39 20
-50 11 -10 46 -57 78 -104 179 -263 221 -429 135 -531 -19 -23 -33 -30 -52
-28 -22 3 -33 17 -71 93 -25 50 -63 130 -84 179 -22 48 -56 115 -77 147 -33
51 -43 59 -69 59 -57 0 -114 43 -129 96 -5 19 -16 30 -35 35 -38 11 -74 45
-81 79 -6 29 -52 65 -155 123 -62 35 -90 67 -111 129 -13 39 -23 54 -39 56
-11 2 -26 12 -32 21 -7 11 -19 16 -30 13 -27 -7 -22 11 15 56 31 40 63 52 83
32z m-2609 -1796 c-3 -3 -12 -4 -19 -1 -8 3 -5 6 6 6 11 1 17 -2 13 -5z m3508
-1044 c22 -11 57 -20 78 -20 33 0 38 -3 33 -17 -4 -10 -46 -119 -94 -241 l-87
-224 -110 6 c-191 11 -1116 8 -1172 -3 -29 -6 -72 -20 -95 -32 -36 -19 -61
-22 -155 -23 -62 -1 -113 3 -113 7 0 4 -20 17 -44 28 -77 34 -219 40 -691 33
l-440 -6 -44 131 c-25 72 -43 132 -40 134 2 2 23 -2 46 -8 l42 -10 -19 -30
c-27 -40 -25 -63 5 -77 21 -9 37 -6 105 21 147 58 237 58 480 1 74 -18 177
-34 228 -37 84 -5 96 -4 122 16 23 17 43 21 97 21 138 0 375 48 521 106 81 32
253 114 304 145 l38 23 23 -22 c12 -12 47 -35 76 -51 l54 -29 -44 -12 c-94
-24 -216 -66 -273 -95 -54 -26 -61 -34 -64 -62 -3 -25 2 -35 23 -49 36 -24
173 -13 330 25 249 61 330 61 481 1 41 -17 81 -30 88 -30 23 0 39 28 32 55 -8
31 -68 99 -107 122 -16 10 -29 20 -29 23 0 4 25 14 55 24 103 32 273 126 320
176 1 0 18 -9 40 -20z m-1531 -849 c15 -6 25 -31 42 -110 41 -181 138 -347
255 -435 132 -99 243 -131 429 -123 115 5 171 16 338 63 l23 7 -20 -49 c-138
-349 -485 -1229 -611 -1549 -209 -533 -206 -526 -249 -586 -47 -68 -121 -119
-170 -119 -54 0 -135 44 -187 103 -79 90 -109 152 -164 332 -80 266 -170 509
-334 905 -146 351 -179 440 -166 455 10 13 18 8 46 -29 84 -110 249 -189 464
-221 175 -27 493 -16 711 25 149 28 199 42 199 58 0 16 -59 15 -320 -8 -58 -5
-195 -9 -305 -10 -285 0 -425 24 -574 100 -66 33 -161 108 -161 127 0 7 11 20
25 29 30 19 32 40 6 49 -24 7 -60 -7 -98 -39 l-30 -25 -67 187 c-36 103 -66
190 -66 193 0 4 57 4 128 2 96 -4 144 -1 196 11 246 58 435 279 492 574 8 41
14 75 14 77 0 13 125 17 154 6z"/>
<path d="M3230 1460 c0 -15 89 -57 161 -75 76 -20 234 -23 328 -5 121 22 198
62 163 84 -5 3 -55 -2 -113 -10 -140 -21 -333 -21 -434 0 -93 19 -105 19 -105
6z"/>
</g>
</svg>
